<?xml version="1.0" encoding="UTF-8"?>
<svg id="Layer_1" data-name="Layer 1" xmlns="http://www.w3.org/2000/svg" viewBox="0 0 97.15 104.65">
  <defs>
    <style>
      .cls-1 {
        fill: #2b3990;
      }

      .cls-2 {
        fill: #140f33;
      }

      .cls-3 {
        fill: #1c1744;
      }
    </style>
  </defs>
  <rect class="cls-3" x="5.67" y="14.42" width="75.8" height="75.8" rx="10.07" ry="10.07" transform="translate(95.89 8.75) rotate(90)"/>
  <g>
    <rect class="cls-1" x="15.68" y="14.42" width="75.8" height="75.8" rx="10.07" ry="10.07" transform="translate(105.9 -1.25) rotate(90)"/>
    <path class="cls-2" d="M53.52,50.87c.13.03.09-.02.13-.07.41-.63.78-1.5,1.17-2.18,1.52-2.62,3.32-5.22,5.19-7.61,3.32-4.25,8.66-10.22,14.03-11.61,4.56-1.18,6.06,1.58,5.93,5.7-.07,2.27-.31,4.72-.51,6.99-.52,5.94-.4,11.78-6.73,14.48-2.5,1.07-5.2,1.2-7.89,1.01l2.99.85c5.52,1.96,8.58,6.09,4.52,11.46-2.97,3.92-8.61,7.99-13.22,4.01-3.07-2.65-3.92-6.2-5.39-9.74-.02-.06-.11-.36-.21-.27-1.29,3.69-3.03,8.63-6.55,10.77-4.47,2.71-9.83-1.49-12.38-5.07-3.96-5.54-.18-9.66,5.29-11.35l2.43-.67c-2.68.19-5.39.05-7.89-1.01-6.34-2.71-6.2-8.53-6.73-14.48-.2-2.28-.44-4.71-.51-6.99-.12-3.57.96-6.55,5.13-5.87,6.42,1.04,13.4,9.6,16.98,14.69,1.55,2.21,3.04,4.52,4.22,6.95Z"/>
  </g>
</svg>