<?xml version="1.0" encoding="UTF-8"?>
<svg id="Layer_1" data-name="Layer 1" xmlns="http://www.w3.org/2000/svg" viewBox="0 0 1385.25 1002">
  <defs>
    <style>
      .cls-1 {
        fill: #fcb040;
      }

      .cls-2 {
        fill: #181441;
      }

      .cls-3 {
        fill: #110e32;
      }

      .cls-4 {
        fill: #181440;
      }

      .cls-5 {
        fill: #1e1e1e;
      }

      .cls-6 {
        fill: #110d31;
      }

      .cls-7 {
        fill: #140f33;
      }

      .cls-8 {
        fill: #1c1744;
      }

      .cls-9 {
        fill: #283891;
      }

      .cls-10 {
        fill: #00a79d;
      }

      .cls-11 {
        fill: #f1592a;
      }

      .cls-12 {
        fill: #28328a;
      }
    </style>
  </defs>
  <path class="cls-8" d="M927.79,8.38c.6,183.1.85,366.4.77,549.92l1.54.74v432.07l-1.54.97c-155.44.68-318.24.68-473.88,0l-1.54-.74v-447.46l1.54-.97c.22-.67.48-.66.77,0,1.92,70.75,1.9,141.52,0,212.28l.74-1.54h470.64l.96,1.54-1.54-.73v-193.28l1.54-2.12c-.36.68-.74,1.34-1.2,1.94-4.34,5.51-26.77,13.34-34.55,15.58-57.75,16.6-118.94-3.92-154.96-52.05-5.28-7.05-11.38-15.37-13.54-23.68-2.97,9.77-10.34,19.56-16.92,27.7-60.77,75.28-175.15,70.01-229.33-7.43-5.86,7.47-12.29,14.67-19.3,21.61l-2.53.18c-.63-178.18-.6-356.36,0-534.54h472.34Z"/>
  <path class="cls-7" d="M1213.96,8.38c.6.16,1.47.41,1.54.9.31,2.17.38,14.5,0,16.44l-1.54,1.12-.54,1.54h-123.14l-.95-1.54,1.54.73v200.21l-1.54.95c1.67-1.14,1.99-.66,1.15,1.15l.73-1.54h200.25l.95,1.54-1.54-.54V49.32l1.54-.95c.52-2.43,7.73-2.32,8.46,0,2.22.39,2.03,10.23,1.54,12l-1.54,1.08.06-1.03c11.27-.61,22.75-.78,34.43-.51l.9,1.54c-.6-.14-1.32-.34-1.54-.86-.41-1.01-.67-12.01,1.54-12.21.08-.59.22-1.45.67-1.54,1.11-.22,12.15-.23,13.26,0l1.07,1.54c-.09-11.94-.29-24.09-.6-36.45-.17-1.49.57-2.64,1.75-3.54h31.54c.51,197.81.61,395.82.32,594.02l-.85-.65-125.63.38-1.41,1.8c-26.78,6.78-27.03,28.51-27.19,52.45l.89,58.24c-.2,1.58-.71,3.05-1.53,4.42-.37,6.52-.53,13.11-.48,19.78-36.42.27-72.87.35-109.36.22l-.94-1.54c.08,30.35-.18,60.6-.77,90.76l-.54,1.54h-109.29l-.95-1.54,1.54.54v137.72l-1.54.95.71-1.54h41.45l.92,1.54c.6.07,1.49.25,1.54.69.51,4.62.64,18.36,0,22.81l-1.54,1.12c-40.26.57-80.52.57-120.78,0v-433.78c-.34-183.39-.34-366.69,0-549.92h285.41Z"/>
  <path class="cls-7" d="M454.67,8.38c.57,178.18.56,356.36,0,534.54v449.16c-120.26.57-240.53.57-360.8,0l-1.54-.53-.33-95.14c-30.16-.88-60.52-1.29-91.07-1.24l-.92-1.55V296.8l.73-1.54h225.25l.95,1.54.77-104.6c.07-.61.28-1.52.71-1.54,9.55-.47,20.72-.31,30.34,0,3.34-.57,5.55-.05,6.65,1.54.6.16,1.46.4,1.54.88.37,2.45.4,14.89,0,17.25l-1.54,1.1c-.04-.36-.05-.71.06-1.03.54-1.61,30.23-.85,33.66-.51l.9,1.54c-.6-.16-1.5-.42-1.54-.88-.39-4.54-.38-12.71,0-17.25l1.54-1.1c.73-2.47,9.05-2.36,10,0l-1.54-.54V54.7l1.54-.94c-.46,2.57-8.66,1.94-9.62.51-.2-15.41-.07-30.7.39-45.89h153.86Z"/>
  <path class="cls-9" d="M300.05,8.38c.49,14.55.61,29.47.38,44.78,1.76,1.31,1.75,4.34,0,5.65.26,21.58.13,42.97-.38,64.16.53.63,1.11,1.37,1.13,2.24.06,3.61-4.35,12.14-6.52,15.35-8.55,12.64-20.05,16.98-34.82,17.95-9,.59-20.89.19-30-.29l-2.1-1.41-.08,30.45c2.19,1.1,2.15,4.34-.02,5.47l-.67,104.06H.02v-36.15l.54-1.54,74.37.04c19.6-2.05,33.2-16.71,34.2-36.31l1.68-2.18,1.2-1.61,18.66.11c10.96-1.02,15.41-5.26,19.23-15.17l1.68-.64c-.61-.06-1.52-.28-1.54-.71-.49-14.41-.48-30.49,0-44.91l1.54-.92c-.07.61-.28,1.52-.7,1.54-10.77.45-25.25.81-35.83,0-2.35.48-3.76-.03-4.24-1.54-2.18-25.33-2.23-50.82,0-76.14,19.64-.56,39.66-.77,60.07-.62,1.09-2.12,4.93-2.17,6.03-.05l15.23.02c.16-.76.37-1.39.77-1.54.63-.24,11.47-.27,13.1-.1l.96,1.53.76-1.66c6.68-1.43,12.39-7,13.75-13.72l1.64-.77c-2.12-.31-2.18-2.02.03-2.38v-2.98c-2.27-.16-2.14-4.84.04-5.16-.11-15.11.12-30.06.7-44.86h76.16Z"/>
  <path class="cls-1" d="M110.8,8.38l1.54.53v70.07l-1.54.93c.67.22.66.48,0,.77,0,25.37.07,50.78,0,76.14.4.99.76,1.98,1.02,3s.5,2.01.52,3.01c.39,17.28.43,34.59.2,51.88-.25,2.08-.84,4.06-1.74,5.94-.94,22.16-13.38,37.04-35.74,40.02l-75.03-.03v-74.6l1.55-1.39c13.29,1.09,29.63-3.94,32.12-18.8l1.71-1.35v-7.38s-1.34-.63-1.34-.63c.05-49.14.24-98.2.56-147.18l1.54-.94h74.62Z"/>
  <path class="cls-7" d="M.02,899.02c0-.6.16-1.53.53-1.54,29.21-.51,59.5-.14,88.58.52l.9,1.54v91.59s-1.54.94-1.54.94c-28.61.67-59.58.67-88.47,0v-93.06Z"/>
  <path class="cls-6" d="M223.12,8.38c.39,14.93.39,30.06,0,45.38-.06.61-.28,1.52-.71,1.54-14.38.48-30.69.56-45.08,0-3.03.55-4.95.03-5.76-1.54.6.16,1.51.43,1.54.9.22,3.07.53,22.58,0,24.13l-1.54,1.12c-20.36.46-40.61.46-60.77,0V8.38h112.32Z"/>
  <path class="cls-8" d="M1218.58,8.38c.6.16,1.47.41,1.54.9.31,2.17.38,14.5,0,16.44l-1.54,1.12.54-1.54h72.38l.94,1.54,1.54.87v14.21l-1.54,1.08c.52-2.43,7.73-2.32,8.46,0-.6-.16-1.48-.4-1.54-.87-.17-1.39-.29-13.56,0-14.21.26-.57.93-.85,1.54-1.08-.04-.36-.05-.71.06-1.03.55-1.64,30.51-.69,34.43-.51l.9,1.54,1.54.87v14.21l-1.54,1.08c.61-2.54,9.71-2.34,10.77,0-.36.04-.71.05-1.03-.06-1.61-.54-.95-30.73-.51-33.65l1.54-.9h5.39c-1.04,11.77,1.39,25.86.04,37.34-.09.78-.35,2.65-1.19,2.65h-15v13.07h-35.39v-13.07h-8.46v181.51h-201.94c-.08,0-1.15-1.07-1.15-1.15V26.84h124.62V8.38h4.62Z"/>
  <path class="cls-12" d="M36.18,8.38l-.77,156.13c-1.52-.68-2.03-2.78-1.53-6.29C17.89,155.9,1.96,143.41.02,126.83V8.38h36.16Z"/>
  <polygon class="cls-7" points="1347.05 8.38 1347.05 42.99 1336.28 42.99 1336.28 26.84 1300.89 26.84 1300.89 42.99 1292.43 42.99 1292.43 26.84 1218.58 26.84 1218.58 8.38 1347.05 8.38"/>
  <path class="cls-8" d="M300.81,8.38v45.38s9.23,0,9.23,0v138.44h-10v19.23h-34.62v-19.23h-37.7l-.77,104.6.77-139.98c.6,0,1.52.14,1.54.52.29,4.73.9,26.15,0,29.34l-1.54.9c.07-.61.28-1.52.71-1.54,9.76-.45,23.12-.74,32.72,0,2.35-.48,3.77.03,4.26,1.54-2.54-.61-2.34-9.71,0-10.77-.04-.36-.05-.71.06-1.03.47-1.39,25.89-.65,29.03-.51,2.94-.53,4.78-.02,5.53,1.54,2.54.61,2.34,9.71,0,10.77.43-1.29,1.6-1.81,3.5-1.53.51-41.89.61-83.9.3-126.03-.61-.26-1.3-.4-1.49.4l.13,60.54c-.17,1.71-.67,2.62-2.44,2.02V8.38h.77Z"/>
  <path class="cls-5" d="M1384.74,8.38c.47,328.03.6,656.28.39,984.75-461.78.33-923.48.24-1385.11-.29v-.77h88.47c.27-2.33,4.92-2.22,5.39,0h834.68c40.25,0,80.53,0,120.78,0,25.38-1.51,50.78-1.51,76.16,0,34.1-1.91,68.22-1.9,102.32,0,.14-.69.4-.66.77,0,24.86-1.91,49.76-1.89,74.62,0,26.6-1.8,53.24-1.86,79.87-.83-1.02-33.56-.85-67.15.91-100.7-1.5-25.37-1.5-50.77,0-76.14-1.51-6.91-1.51-13.86,0-20.77-2.12-24.84-2.08-49.77,0-74.6-1.71-13.53-1.76-27.15-1.44-40.77h-60.71s-.94-1.53-.94-1.53l.51-1.54c20.53-.25,41.07-.5,61.61-.75l.95,1.53c-.6,0-1.53-.16-1.54-.54-.49-21.8-.69-45.48,0-67.31-.53-3.04-.02-5.04,1.54-5.99l-.54,1.54h-124.68l-.95-1.54,126.17-.77V8.38s.77,0,.77,0Z"/>
  <path class="cls-6" d="M.02,126.83c5.52,16.15,18.01,27.98,35.31,30.07.25.29.18,6.43.08,7.61-1.55,17.25-20.33,23.28-35.39,21.54v-59.22Z"/>
  <polygon class="cls-8" points="93.88 992.08 88.49 992.08 88.5 899.01 .02 899.02 .02 893.63 93.54 894.35 93.88 992.08"/>
  <path class="cls-8" d="M223.12,63.76c-1.27-.6-1.84-1.88-1.7-3.85h-44.3s-.92-1.53-.92-1.53c.6.07,1.48.25,1.54.7.42,3.38.54,16.56,0,19.72l-1.54,1.12c.62-.77,1.38-1.39,2.34-1.66,2.93-.83,21.49,0,25.98.31l2.45,1.35-96.16.77v-.77h60.77v-26.15h51.54V8.38h.77l-.77,55.38Z"/>
  <polygon class="cls-2" points="928.55 558.3 927.79 8.38 928.55 8.38 928.55 558.3"/>
  <path class="cls-2" d="M455.44,542.92h-.77V8.38h.77c.03,178.17-.04,356.37,0,534.54Z"/>
  <path class="cls-10" d="M455.44,542.92c3.24-2.83,6.78-6,9.63-9.22,1.86-2.11,10.89-14.97,12.29-14.62.96.24,10.26,13.16,12.31,15.39,48.61,52.98,128.73,61.61,187.57,19.84,19.86-14.1,34.9-33,46.3-54.45,8.97,17.34,20.31,32.88,34.99,45.76,47.11,41.34,115.93,46.49,169.25,13.45v196.12h-472.34c-.01-70.75.02-141.53,0-212.28Z"/>
  <path class="cls-7" d="M883.17,329.87c1.99.52,4.04.78,6.15.77,8.86,1.02,16.87,2.88,25.39,5.39.24.27-.52,3.54-.85,3.77-.8.55-16.11-3.87-18.99-4.32-3.4-.53-6.72-.82-10.16-.99-3.29-.75-6.71-.73-10,0-29.6,1.31-61.51,15.97-80.01,39.22.18.74.95,1,2.31.77,1.33-.17,9.65-1.12,10-.77.33.33.08,2.74-.77,3.46-2.06,1.76-15.72,2.47-19.26,3.14-.82-.56-3.69-16.49-3.78-18.64-.04-.99.1-2.26,1.14-2.57,4.72-1.39,3.51,10.64,5.36,13.06,21.03-23.92,48.51-38.46,80.39-41.53,1.98-.59,4.03-.85,6.15-.77,2.28-.11,4.64-.04,6.92,0Z"/>
  <path class="cls-7" d="M884.71,334.49c-3.16-.16-6.83-.14-10,0,2.47-1.31,7.69-1.28,10,0Z"/>
  <path class="cls-7" d="M889.32,330.64c-1.93-.24-4.83.77-6.15-.77,2.64.05,4.14.54,6.15.77Z"/>
  <path class="cls-7" d="M876.24,329.87c-1.25.06-4.29.59-6.15.77,1.33-1.54,4.23-.53,6.15-.77Z"/>
  <path class="cls-7" d="M797.01,374.48c-.71.09-2.36,1.44-3.85.76-.08-.93,1.21-1.12,1.54-1.53l2.31.77Z"/>
  <path class="cls-9" d="M1117.03,877.48c.14-.69.4-.66.77,0,24.6-1.93,49.25-1.91,73.85,0,.07-.61.28-1.52.71-1.54,10.84-.47,23.68-.47,34.52,0l.92,1.54c.62,25.38.63,50.77,0,76.14-27.31.41-54.86.56-82.65.45-1.17,1.93-4.08,2.77-5.82,1.09l-.4,1.76c-3.05,1.61-5.99,3.33-8.83,5.16.5,2.22-.79,4.27-3.85,6.15l1.16,1.82c-.58,6.8-.68,13.63-.3,20.49l-1.63,1.53c-25.37,0-50.79,0-76.16,0v-24.61c-2.33-.27-2.23-4.92,0-5.38-1.3-28.43-1.95-56.88-.98-85.34,22.91-1.05,45.84-1.4,68.68.74Z"/>
  <path class="cls-11" d="M1257.81,602.14h126.16v73.84l-63.08.77-1.25,1.8c-10.94,2.25-14,10.66-14.93,20.67l.02,18.55-1.53,1.27c-24.84,2.14-49.78,2.1-74.62,0,.06-26.99-2.08-58.66-.03-85.01,1.24-15.98,13.24-29.61,29.26-31.89Z"/>
  <path class="cls-11" d="M1228.58,992.08c-.26,0-.51,0-.77,0l-1.54-.71v-36.06l1.54-.92c-.67-.22-.66-.48,0-.77,0-25.37.02-50.77,0-76.14-1.92-21.78-1.9-43.6,0-65.37-.07.59-.24,1.47-.67,1.54-1.76.27-14.01.33-15.55,0l-1.09-1.54.23.99c-14.59,4.72-17.29,15.13-17.9,29.49.44,11.29.61,22.56.51,33.8l-1.68,1.09c-24.6,0-49.25-.03-73.85,0-.49-13.88-.62-28.15-.38-42.81-1.8-1.67-1.78-5.5,0-7.19l.38-89.98h110.01c.61-.61-.37-14.63-.03-17.35.08-.61.03-1.15.79-1.11,2.29,90.96,2.58,182.08,0,273.04Z"/>
  <path class="cls-8" d="M1117.8,623.67c17.94.05,35.91-.04,53.85,0v53.84h-53.85c-.04-17.93.05-35.91,0-53.84Z"/>
  <path class="cls-8" d="M1117.8,877.48c-.26,0-.51,0-.77,0l-1.54-.71v-42.21l1.54-.92-.54,1.54h-104.68l-.95-1.54,1.54.53v126.96l-1.54.94.71-1.54h36.84l.92,1.54v5.38h-43.08v-139.21h110.78l.77-90.76v139.98Z"/>
  <path class="cls-8" d="M1117.8,623.67c-11.53-.03-23.09.02-34.62,0v-34.61h34.62c.02,11.52-.03,23.09,0,34.61Z"/>
  <path class="cls-8" d="M126.96,484.46c.03,11.52-.02,23.09,0,34.61h188.48v183.82h83.08v202.28h-185.78c-2.01,0-.75,7.69-1.15,7.69h-33.08v-33.07h16.92v-157.67h-82.31v-183.82h-40v-53.84c17.94-.03,35.91.04,53.85,0Z"/>
  <path class="cls-8" d="M126.96,484.46c-.05-17.93.04-35.91,0-53.84h53.85v53.84c-17.94.03-35.91-.04-53.85,0Z"/>
  <rect class="cls-8" x="360.82" y="921.32" width="53.85" height="53.07"/>
  <path class="cls-7" d="M300.05,122.98c.07-.4,1.27-1.56.82-2.6l-.06-62.01c2.45-.14,4.82-.42,4.65,2.66v123.9c.16,3.42-2.84,2.68-5.42,2.65v-10.77h-34.62v10.77h-37.7v-30.76c15.34-1.22,33.84,2.84,48.22-2.94,13.1-5.26,21.67-17.17,24.09-30.9Z"/>
  <path class="cls-6" d="M110.8,156.82h40.77v46.53c0,2.11-4.52,9.84-6.16,11.53-8.61,8.88-23.57,4.93-34.61,5.77.89-20.85-.06-42.84,0-63.84Z"/>
  <path class="cls-7" d="M206.96,79.91c-9.73.96-20.88-.71-30.77,0v-21.54h46.93c-.1,1.77.14,3.61,0,5.38-.62,7.65-8.46,15.4-16.16,16.15Z"/>
  <polygon class="cls-7" points="1213.96 31.46 1213.96 48.38 1287.81 48.38 1287.81 224.5 1094.72 224.5 1094.72 31.46 1213.96 31.46"/>
  <rect class="cls-7" x="1218.58" y="31.46" width="69.24" height="11.54"/>
  <path class="cls-1" d="M1303.2,719.04c26.89-2.14,53.88-2.1,80.78,0,.05,24.85-.01,49.75,0,74.6l-.7,1.54-59.17.33c-8.7,1.74-15.7,7.82-18.28,16.35l-1.85,1.01c.74,3.79.75,8.19.03,13.2.08,20.97.16,41.87.22,62.72l-1.03,1.76c2.25,33.78,2.36,67.75,0,101.52-24.86.02-49.76-.01-74.62,0,.15-91-.2-182.04,0-273.04,24.86-.02,49.76.03,74.62,0Z"/>
  <path class="cls-6" d="M1383.97,890.56c-.02,33.83.01,67.7,0,101.53-26.91.01-53.87-.03-80.78,0,.06-33.83-.08-67.7,0-101.52l.53-1.54h79.31l.94,1.54Z"/>
  <path class="cls-9" d="M1303.97,812.88c25.47-.05,51.07.1,76.81.43l3.19,1.11c0,25.37.02,50.77,0,76.14h-80.78c.05-23.3-2.16-52.59-.06-75.08.14-1.52.68-1.96.83-2.6Z"/>
  <path class="cls-6" d="M1227.81,954.39v37.69c-34.09.01-68.22,0-102.32,0,.6-7.6-1.16-16.56.77-23.84l1.19-1.61c2.28-1.54,14.09-.58,17.28-.31-2.51-1.13-2.41-10.57,0-11.92,26.99-.7,55.95-.67,83.08,0Z"/>
  <path class="cls-6" d="M1320.89,676.74h63.09c.01,14.09-.03,28.21,0,42.3-26.91.02-53.86-.03-80.78,0,.02-16.46-3.71-38.8,17.69-42.3Z"/>
  <path class="cls-6" d="M1383.97,793.65c0,6.91,0,13.86,0,20.77-25.69-.76-51.69,1.02-77.35,0-1.48-.06-3.09.79-2.66-1.54,2.25-9.74,10.18-17.05,19.96-18.88l60.04-.35Z"/>
  <path class="cls-7" d="M1049.33,962.08h-38.46v-128.44h106.16v43.84c-22.55.03-45.15-.02-67.7,0,0,28.19,0,56.42,0,84.61Z"/>
  <path class="cls-6" d="M1191.65,877.48c2.49-18.48-7.99-54.55,13.66-63.64.72-.3,4.91-1.74,5.19-1.74h17.31c.01,21.78-.02,43.6,0,65.37h-36.16Z"/>
  <path class="cls-4" d="M1227.81,953.62v.77h-83.08v11.92c0,2.54-16.09-.05-18.46,1.92,1.04-3.91,1.86-3.66,3.85-6.15,2.28-1.54,5.05-2.05,8.28-1.54-.82-2.65-.51-4.45.95-5.38,2.41-.8,4.73-1.39,7.28-1.57l81.19.03Z"/>
  <path class="cls-3" d="M1139.34,955.16l.77,6.93h-10c3.3-4.15,3.61-5.06,9.23-6.93Z"/>
  <polygon class="cls-7" points="310.82 523.69 310.82 702.89 195.42 702.89 195.42 716.74 117.72 716.74 117.72 538.3 126.96 538.3 126.96 523.69 310.82 523.69"/>
  <polygon class="cls-7" points="393.13 707.51 393.13 900.56 211.58 900.56 211.58 879.79 200.04 879.79 200.04 722.12 315.43 722.12 315.43 707.51 393.13 707.51"/>
  <path class="cls-6" d="M310.82,707.51v10h-109.62c-1.88,0-.96-8.27-1.15-10h110.78Z"/>
  <rect class="cls-8" x="1318.58" y="930.55" width="34.62" height="34.61"/>
</svg>