<?xml version="1.0" encoding="UTF-8"?>
<svg id="Layer_1" xmlns="http://www.w3.org/2000/svg" version="1.1" viewBox="0 0 33.15 45.59">
  <!-- Generator: Adobe Illustrator 29.8.2, SVG Export Plug-In . SVG Version: 2.1.1 Build 3)  -->
  <defs>
    <style>
      .st0 {
        fill: #2b3990;
      }

      .st1 {
        fill: #f15a29;
      }

      .st2 {
        fill: #140f33;
      }

      .st3 {
        fill: #1c1744;
      }

      .st4 {
        fill: #262262;
      }

      .st5 {
        fill: #fbb040;
      }
    </style>
  </defs>
  <g>
    <rect class="st2" x=".03" y=".05" width="33.1" height="45.48"/>
    <path class="st0" d="M33.12,7.87h-5.63c-.96,0-1.73-.78-1.73-1.73V.05h-6.71v11.03c0,1.93,1.56,3.49,3.49,3.49h10.58v-6.71Z"/>
    <path class="st3" d="M33.12,18.17h-4.88c-1.18,0-2.15-.96-2.15-2.15v-2.17c0-1.96-1.59-3.56-3.56-3.56H.03v6.8h16.94c1.28,0,2.32,1.04,2.32,2.32v2.63c0,1.64,1.33,2.98,2.98,2.98h10.85v-6.86Z"/>
    <path class="st1" d="M5.23,5.34H.03v6.71h.26c.96,0,1.73.78,1.73,1.73v6.08h6.71v-11.03c0-1.93-1.56-3.49-3.49-3.49Z"/>
    <rect class="st1" x="4.24" y="19.92" width="4.64" height="16.81"/>
    <path class="st4" d="M10.3.05v23.6c0,1.18-.96,2.15-2.15,2.15h-2.17c-1.96,0-3.56,1.59-3.56,3.56v15.74c.56.28,1.2.43,1.87.43h4.93v-10.61c0-1.28,1.04-2.32,2.32-2.32h2.63c1.64,0,2.98-1.33,2.98-2.98V.05h-6.86Z"/>
    <path class="st1" d="M10.5,37.72h5.63c.96,0,1.73.78,1.73,1.73v6.08h6.71v-11.03c0-1.93-1.56-3.49-3.49-3.49h-10.58v6.71Z"/>
    <path class="st5" d="M10.61,16.66H.03v6.71h5.63c.96,0,1.73.78,1.73,1.73v2.59h0v5.63c0,.96-.78,1.73-1.73,1.73H.03v6.17c0,.18.01.36.03.53h10.54c1.93,0,3.49-1.56,3.49-3.49v-18.12c0-1.93-1.56-3.49-3.49-3.49Z"/>
  </g>
  <rect class="st5" x="7.41" y="25.21" width="6.71" height="16.59"/>
  <rect class="st1" x="2.33" y="5.33" width="6.39" height="11.06"/>
  <rect class="st3" x="19.42" y="10.31" width="6.71" height="8.63"/>
</svg>