<?xml version="1.0" encoding="UTF-8"?>
<svg xmlns="http://www.w3.org/2000/svg" version="1.1" viewBox="0 0 33.15 45.59">
  <!-- Generator: Adobe Illustrator 29.8.2, SVG Export Plug-In . SVG Version: 2.1.1 Build 3)  -->
  <defs>
    <style>
      .st0 {
        fill: #2b3990;
      }

      .st1, .st2, .st3 {
        isolation: isolate;
      }

      .st1, .st4 {
        display: none;
      }

      .st5, .st6 {
        fill: #3d6be7;
      }

      .st7 {
        fill: #140f33;
      }

      .st7, .st2 {
        opacity: .75;
      }

      .st8, .st2 {
        fill: #140f33;
      }

      .st9, .st10, .st11, .st12, .st13, .st14 {
        fill: none;
        stroke-linejoin: bevel;
      }

      .st9, .st10, .st13 {
        stroke: #3d6be7;
        stroke-width: .5px;
      }

      .st10 {
        stroke-dasharray: 3.65 3.65;
      }

      .st3 {
        font-size: 3.51px;
      }

      .st3, .st6 {
        font-family: ArgentPixelCF-Regular, 'Argent Pixel CF';
      }

      .st3, .st15 {
        fill: #3d6be7;
      }

      .st16 {
        fill: #f15a29;
      }

      .st11 {
        stroke-dasharray: 3.65 3.65;
      }

      .st11, .st12, .st14 {
        stroke: #3d6be7;
        stroke-width: .49px;
      }

      .st17 {
        fill: #262262;
      }

      .st6 {
        font-size: 3.83px;
      }

      .st12 {
        stroke-dasharray: 3.9 3.9;
      }

      .st13 {
        stroke-dasharray: 3.89 3.89;
      }

      .st18 {
        fill: #1c1744;
      }

      .st19 {
        fill: #fbb040;
      }
    </style>
  </defs>
  <g id="Layer_1">
    <g id="Layer_11" data-name="Layer_1">
      <g>
        <rect class="st8" x=".03" y=".05" width="33.1" height="45.48"/>
        <path class="st0" d="M33.12,7.87h-5.63c-.96,0-1.73-.78-1.73-1.73V.05h-6.71v11.03c0,1.93,1.56,3.49,3.49,3.49h10.58v-6.71h0Z"/>
        <path class="st18" d="M33.12,18.17h-4.88c-1.18,0-2.15-.96-2.15-2.15v-2.17c0-1.96-1.59-3.56-3.56-3.56H.03v6.8h16.94c1.28,0,2.32,1.04,2.32,2.32v2.63c0,1.64,1.33,2.98,2.98,2.98h10.85v-6.86h0Z"/>
        <path class="st16" d="M5.23,5.34H.03v6.71h.26c.96,0,1.73.78,1.73,1.73v6.08h6.71v-11.03c0-1.93-1.56-3.49-3.49-3.49h0Z"/>
        <rect class="st16" x="4.24" y="19.92" width="4.64" height="16.81"/>
        <path class="st17" d="M10.3.05v23.6c0,1.18-.96,2.15-2.15,2.15h-2.17c-1.96,0-3.56,1.59-3.56,3.56v15.74c.56.28,1.2.43,1.87.43h4.93v-10.61c0-1.28,1.04-2.32,2.32-2.32h2.63c1.64,0,2.98-1.33,2.98-2.98V.05h-6.86.01Z"/>
        <path class="st16" d="M10.5,37.72h5.63c.96,0,1.73.78,1.73,1.73v6.08h6.71v-11.03c0-1.93-1.56-3.49-3.49-3.49h-10.58v6.71Z"/>
        <path class="st19" d="M10.61,16.66H.03v6.71h5.63c.96,0,1.73.78,1.73,1.73v2.59h0v5.63c0,.96-.78,1.73-1.73,1.73H.03v6.17c0,.18,0,.36.03.53h10.54c1.93,0,3.49-1.56,3.49-3.49v-18.12c0-1.93-1.56-3.49-3.49-3.49h0Z"/>
      </g>
      <rect class="st19" x="7.41" y="25.21" width="6.71" height="16.59"/>
      <rect class="st16" x="2.33" y="5.33" width="6.39" height="11.06"/>
      <rect class="st18" x="19.42" y="10.31" width="6.71" height="8.63"/>
    </g>
    <g id="Layer_2" class="st4">
      <rect class="st2" x="-.14" y="0" width="33.8" height="45.58"/>
      <polygon class="st15" points="25.28 20.81 19.73 19.92 19.73 19.92 16.58 19.41 16.58 19.41 16.57 19.41 13.42 19.92 13.42 19.92 7.87 20.81 10.83 21.71 13.83 21.1 11.62 26.18 21.53 26.18 19.32 21.1 22.32 21.71 25.28 20.81"/>
      <g>
        <polyline class="st9" points="32.2 42.85 32.2 44.85 30.2 44.85"/>
        <line class="st13" x1="26.31" y1="44.85" x2="4.9" y2="44.85"/>
        <polyline class="st9" points="2.95 44.85 .95 44.85 .95 42.85"/>
        <line class="st10" x1=".95" y1="39.21" x2=".95" y2="4.56"/>
        <polyline class="st9" points=".95 2.74 .95 .74 2.95 .74"/>
        <line class="st13" x1="6.84" y1=".74" x2="28.25" y2=".74"/>
        <polyline class="st9" points="30.2 .74 32.2 .74 32.2 2.74"/>
        <line class="st10" x1="32.2" y1="6.38" x2="32.2" y2="41.03"/>
      </g>
      <g class="st1">
        <text class="st3" transform="translate(7.71 30.2)"><tspan x="0" y="0">Go to site?</tspan></text>
      </g>
    </g>
  </g>
  <g id="Layer_21" data-name="Layer_2" class="st4">
    <rect class="st7" x="-.79" y="-.49" width="34.92" height="47.09"/>
    <g>
      <polyline class="st14" points="32.21 42.87 32.21 44.84 30.24 44.84"/>
      <line class="st12" x1="26.34" y1="44.84" x2="4.86" y2="44.84"/>
      <polyline class="st14" points="2.91 44.84 .94 44.84 .94 42.87"/>
      <line class="st11" x1=".94" y1="39.22" x2=".94" y2="4.54"/>
      <polyline class="st14" points=".94 2.72 .94 .75 2.91 .75"/>
      <line class="st12" x1="6.81" y1=".75" x2="28.29" y2=".75"/>
      <polyline class="st14" points="30.24 .75 32.21 .75 32.21 2.72"/>
      <line class="st11" x1="32.21" y1="6.37" x2="32.21" y2="41.05"/>
    </g>
    <polygon class="st5" points="25.56 19.55 16.67 17.36 16.64 17.36 16.61 17.36 7.59 19.55 10.75 20.59 14.08 19.69 12.66 28.23 19.96 28.23 19.07 19.69 22.33 20.59 25.56 19.55"/>
    <text class="st6" transform="translate(6.91 31.86)"><tspan x="0" y="0">Go to site?</tspan></text>
  </g>
</svg>