<?xml version="1.0" encoding="UTF-8"?>
<svg xmlns="http://www.w3.org/2000/svg" viewBox="0 0 33.15 45.59">
  <defs>
    <style>
      .cls-1 {
        fill: #2b3990;
      }

      .cls-2 {
        font-family: ArgentPixelCF-Regular, 'Argent Pixel CF';
        font-size: 3.18px;
      }

      .cls-2, .cls-3 {
        fill: #3d6be7;
      }

      .cls-4 {
        stroke-dasharray: 3.76 3.76;
      }

      .cls-4, .cls-5, .cls-6 {
        fill: none;
        stroke: #3d6be7;
        stroke-linejoin: bevel;
        stroke-width: .5px;
      }

      .cls-7 {
        fill: #140f33;
        opacity: .75;
      }

      .cls-8 {
        fill: #140f33;
      }

      .cls-9 {
        fill: #f15a29;
      }

      .cls-6 {
        stroke-dasharray: 4.36 4.36;
      }

      .cls-10 {
        fill: #262262;
      }

      .cls-11 {
        fill: #1c1744;
      }

      .cls-12 {
        fill: #fbb040;
      }
    </style>
  </defs>
  <g id="Layer_1" data-name="Layer 1">
    <g id="Layer_1-2" data-name="Layer 1">
      <g id="Layer_11" data-name="Layer 11">
        <g>
          <rect class="cls-8" x=".03" y=".05" width="33.1" height="45.48"/>
          <path class="cls-1" d="M33.12,7.87h-5.63c-.96,0-1.73-.78-1.73-1.73V.05h-6.71v11.03c0,1.93,1.56,3.49,3.49,3.49h10.58v-6.71h0Z"/>
          <path class="cls-11" d="M33.12,18.17h-4.88c-1.18,0-2.15-.96-2.15-2.15v-2.17c0-1.96-1.59-3.56-3.56-3.56H.03v6.8h16.94c1.28,0,2.32,1.04,2.32,2.32v2.63c0,1.64,1.33,2.98,2.98,2.98h10.85v-6.86h0Z"/>
          <path class="cls-9" d="M5.23,5.34H.03v6.71h.26c.96,0,1.73.78,1.73,1.73v6.08h6.71v-11.03c0-1.93-1.56-3.49-3.49-3.49h0Z"/>
          <rect class="cls-9" x="4.24" y="19.92" width="4.64" height="16.81"/>
          <path class="cls-10" d="M10.3.05v23.6c0,1.18-.96,2.15-2.15,2.15h-2.17c-1.96,0-3.56,1.59-3.56,3.56v15.74c.56.28,1.2.43,1.87.43h4.93v-10.61c0-1.28,1.04-2.32,2.32-2.32h2.63c1.64,0,2.98-1.33,2.98-2.98V.05h-6.86.01Z"/>
          <path class="cls-9" d="M10.5,37.72h5.63c.96,0,1.73.78,1.73,1.73v6.08h6.71v-11.03c0-1.93-1.56-3.49-3.49-3.49h-10.58v6.71Z"/>
          <path class="cls-12" d="M10.61,16.66H.03v6.71h5.63c.96,0,1.73.78,1.73,1.73v2.59h0v5.63c0,.96-.78,1.73-1.73,1.73H.03v6.17c0,.18,0,.36.03.53h10.54c1.93,0,3.49-1.56,3.49-3.49v-18.12c0-1.93-1.56-3.49-3.49-3.49h0Z"/>
        </g>
        <rect class="cls-12" x="7.41" y="25.21" width="6.71" height="16.59"/>
        <rect class="cls-9" x="2.33" y="5.33" width="6.39" height="11.06"/>
        <rect class="cls-11" x="19.42" y="10.31" width="6.71" height="8.63"/>
      </g>
    </g>
  </g>
  <g id="Layer_2" data-name="Layer 2">
    <rect class="cls-7" x="-2.95" y="-4.89" width="39.28" height="54.56"/>
  </g>
  <g id="Layer_3" data-name="Layer 3">
    <text class="cls-2" transform="translate(8.54 31.5)"><tspan x="0" y="0">Go to site?</tspan></text>
    <g>
      <polyline class="cls-5" points="31.73 42.42 31.73 44.42 29.73 44.42"/>
      <line class="cls-4" x1="25.97" y1="44.42" x2="5.3" y2="44.42"/>
      <polyline class="cls-5" points="3.42 44.42 1.42 44.42 1.42 42.42"/>
      <line class="cls-6" x1="1.42" y1="38.06" x2="1.42" y2="5.35"/>
      <polyline class="cls-5" points="1.42 3.17 1.42 1.17 3.42 1.17"/>
      <line class="cls-4" x1="7.18" y1="1.17" x2="27.85" y2="1.17"/>
      <polyline class="cls-5" points="29.73 1.17 31.73 1.17 31.73 3.17"/>
      <line class="cls-6" x1="31.73" y1="7.53" x2="31.73" y2="40.24"/>
    </g>
    <polygon class="cls-3" points="24.98 20.12 16.59 17.33 16.58 17.34 16.56 17.33 8.17 20.12 10.83 21.37 14.46 20.02 13.53 28.26 19.62 28.26 18.69 20.02 22.32 21.37 24.98 20.12"/>
  </g>
</svg>