<?xml version="1.0" encoding="UTF-8"?>
<svg id="Layer_1" data-name="Layer 1" xmlns="http://www.w3.org/2000/svg" viewBox="0 0 97.15 104.65">
  <defs>
    <style>
      .cls-1 {
        fill: #140f33;
      }

      .cls-1, .cls-2 {
        stroke: #3d6be7;
        stroke-miterlimit: 10;
        stroke-width: 2px;
      }

      .cls-3, .cls-2 {
        fill: #3d6be7;
      }
    </style>
  </defs>
  <rect class="cls-2" x="5.67" y="14.42" width="75.8" height="75.8" transform="translate(95.89 8.75) rotate(90)"/>
  <g>
    <rect class="cls-1" x="15.68" y="14.42" width="75.8" height="75.8" transform="translate(105.9 -1.25) rotate(90)"/>
    <g>
      <path class="cls-3" d="M55.77,49.05c.22.05.15-.04.21-.12,2.45-3.57,5.69-4.75,10.01-4.22,6.64.81,8.16,5.76,8.39,11.69.21,5.41-.17,10.96,0,16.39l-.14.32h-8.33l-.14-.32c-.16-4.8.23-9.76,0-14.54-.15-3.21-.8-6.01-4.58-6.06-3.4-.05-4.87,2.41-5.05,5.51-.29,4.92.22,10.14,0,15.1l-.14.32h-8.42l-.14-.14v-27.58l.14-.14h8.05l.14.14v3.66Z"/>
      <polygon class="cls-3" points="33.51 45.26 41.93 45.26 42.07 45.4 42.07 72.98 41.93 73.12 33.51 73.12 33.37 72.98 33.37 45.4 33.51 45.26"/>
      <path class="cls-3" d="M36.78,31.58c5.38-.73,8.12,5.73,3.94,8.94-3.41,2.62-8.36-.21-7.99-4.47.18-2.04,1.97-4.18,4.05-4.47Z"/>
    </g>
  </g>
</svg>